/* R-Droid 2026 Icon Placeholder */
/* Replace with actual SVG logo */

<svg xmlns="http://www.w3.org/2000/svg" viewBox="0 0 512 512">
  <!-- Background Circle with Gradient -->
  <defs>
    <linearGradient id="bgGrad" x1="0%" y1="0%" x2="100%" y2="100%">
      <stop offset="0%" style="stop-color:#1a1a2e;stop-opacity:1" />
      <stop offset="100%" style="stop-color:#16213e;stop-opacity:1" />
    </linearGradient>
    <linearGradient id="rustGrad" x1="0%" y1="0%" x2="100%" y2="100%">
      <stop offset="0%" style="stop-color:#FF6B35;stop-opacity:1" />
      <stop offset="100%" style="stop-color:#F7C59F;stop-opacity:1" />
    </linearGradient>
    <linearGradient id="androidGrad" x1="0%" y1="0%" x2="100%" y2="100%">
      <stop offset="0%" style="stop-color:#3DDC84;stop-opacity:1" />
      <stop offset="100%" style="stop-color:#00C853;stop-opacity:1" />
    </linearGradient>
  </defs>
  
  <!-- Main Circle -->
  <circle cx="256" cy="256" r="240" fill="url(#bgGrad)" stroke="#00ffff" stroke-width="4"/>
  
  <!-- Rust Gear (simplified) -->
  <path d="M256 80 L280 120 L320 100 L320 140 L360 140 L340 180 L380 200 
           L340 220 L360 260 L320 260 L320 300 L280 280 L256 320 
           L232 280 L192 300 L192 260 L152 260 L172 220 L132 200 
           L172 180 L152 140 L192 140 L192 100 L232 120 Z" 
        fill="url(#rustGrad)" opacity="0.9"/>
  
  <!-- Android Robot Head -->
  <ellipse cx="256" cy="280" rx="80" ry="60" fill="url(#androidGrad)"/>
  
  <!-- Android Eyes -->
  <circle cx="226" cy="270" r="12" fill="#1a1a2e"/>
  <circle cx="286" cy="270" r="12" fill="#1a1a2e"/>
  
  <!-- Android Antennae -->
  <line x1="210" y1="220" x2="230" y2="240" stroke="url(#androidGrad)" stroke-width="8" stroke-linecap="round"/>
  <line x1="302" y1="220" x2="282" y2="240" stroke="url(#androidGrad)" stroke-width="8" stroke-linecap="round"/>
  
  <!-- R-Droid Text Arc -->
  <text x="256" y="420" font-family="Arial, sans-serif" font-size="48" font-weight="bold" 
        fill="#00ffff" text-anchor="middle">R-DROID</text>
</svg>
